<?xml version="1.0" encoding="iso-8859-1"?>
<!-- Generator: Adobe Illustrator 16.0.0, SVG Export Plug-In . SVG Version: 6.00 Build 0)  -->
<!DOCTYPE svg PUBLIC "-//W3C//DTD SVG 1.1//EN" "http://www.w3.org/Graphics/SVG/1.1/DTD/svg11.dtd">
<svg version="1.1" id="Capa_1" xmlns="http://www.w3.org/2000/svg" xmlns:xlink="http://www.w3.org/1999/xlink" x="0px" y="0px"
	 width="612px" height="612px" viewBox="0 0 612 612" style="enable-background:new 0 0 612 612;" xml:space="preserve">
<g>
	<g>
		<path d="M601.234,10.922C594.202,3.89,585.677,0.15,575.805,0.15H147.166c-9.872,0-18.544,3.593-25.723,10.772
			c-6.879,6.879-10.465,15.251-10.465,25.123v117.856h33.202h434.918v243.186c0,2.092-1.199,2.986-3.293,2.986h-49.952v32.902
			h49.952c9.872,0,18.551-3.588,25.43-10.467c7.18-7.178,10.766-15.557,10.766-25.422V36.045
			C612,26.173,608.261,17.948,601.234,10.922z M579.098,120.7H144.179V36.045c0-1.193,1.793-2.993,2.987-2.993h428.639
			c1.2,0,3.293,1.8,3.293,2.993V120.7z"/>
		<path d="M464.534,179.025H36.195C15.851,179.025,0,195.176,0,215.52v360.435c0,20.344,15.851,35.895,36.195,35.895h428.339
			c20.344,0,36.795-15.551,36.795-35.895V215.52c0-10.172-3.67-18.768-10.771-25.723
			C483.302,182.688,474.706,179.025,464.534,179.025z M467.527,575.955c0,2.1-0.9,2.994-2.993,2.994H36.195
			c-2.093,0-2.993-0.895-2.993-2.994V332.777h434.325V575.955z M467.527,299.568H33.202V215.52c0-2.393,0.899-3.593,2.993-3.593
			h428.339c2.093,0,2.993,1.2,2.993,3.593V299.568z"/>
		<path d="M148.965,245.129c-6.139,6.426-6.286,17.051,0,23.337c6.279,6.279,17.044,6.279,23.33,0
			c6.279-6.286,6.132-16.911,0-23.337C165.863,238.391,155.398,238.391,148.965,245.129z"/>
		<path d="M107.685,245.129c-6.279,6.286-6.426,17.198,0,23.337c6.739,6.432,17.351,6.279,23.63,0
			c6.279-6.286,6.133-16.911,0-23.337C124.882,238.391,114.564,238.25,107.685,245.129z"/>
		<path d="M66.704,245.129c-6.133,6.426-6.279,17.051,0,23.337c6.279,6.279,16.904,6.132,23.33,0c6.738-6.439,6.879-17.051,0-23.337
			C83.755,238.25,73.136,238.391,66.704,245.129z"/>
	</g>
</g>
<g>
</g>
<g>
</g>
<g>
</g>
<g>
</g>
<g>
</g>
<g>
</g>
<g>
</g>
<g>
</g>
<g>
</g>
<g>
</g>
<g>
</g>
<g>
</g>
<g>
</g>
<g>
</g>
<g>
</g>
</svg>
