<svg width="113" height="113" viewBox="0 0 113 113" fill="none" xmlns="http://www.w3.org/2000/svg">
<g clip-path="url(#clip0_377_13)">
<path d="M56.765 13.172V2.1731M77.0166 18.1977L82.1803 8.4862M92.6962 32.2057L101.706 25.8969M100.082 51.872L110.999 50.5316M97.5714 72.7482L107.84 76.6899M85.6667 90.1286L93.0264 98.3024M67.193 99.8886L69.8539 110.561M46.337 99.8886L43.6761 110.561M27.8633 90.1286L20.5036 98.3024M15.9586 72.7482L5.69017 76.6899M13.4482 51.872L2.53125 50.5316M20.8338 32.2057L11.824 25.8969M36.5134 18.1977L31.3497 8.4862" stroke="#231F20" stroke-width="5" stroke-linecap="round" stroke-linejoin="round"/>
<path fill-rule="evenodd" clip-rule="evenodd" d="M84.7501 58.1298C70.0482 58.1298 58.13 46.2116 58.13 31.5096C58.13 46.2116 46.2117 58.1298 31.5098 58.1298C46.2117 58.1298 58.13 70.0481 58.13 84.75C58.13 70.0481 70.0482 58.1298 84.7501 58.1298Z" stroke="#231F20" stroke-width="5" stroke-linecap="round" stroke-linejoin="round"/>
</g>
<defs>
<clipPath id="clip0_377_13">
<rect width="113" height="113" fill="white"/>
</clipPath>
</defs>
</svg>
