<?xml version="1.0" encoding="iso-8859-1"?>
<!-- Generator: Adobe Illustrator 16.0.0, SVG Export Plug-In . SVG Version: 6.00 Build 0)  -->
<!DOCTYPE svg PUBLIC "-//W3C//DTD SVG 1.1//EN" "http://www.w3.org/Graphics/SVG/1.1/DTD/svg11.dtd">
<svg version="1.1" id="Capa_1" xmlns="http://www.w3.org/2000/svg" xmlns:xlink="http://www.w3.org/1999/xlink" x="0px" y="0px"
	 width="760.061px" height="760.061px" viewBox="0 0 760.061 760.061" style="enable-background:new 0 0 760.061 760.061;"
	 xml:space="preserve">
<g>
	<path d="M681.562,277.162l-2.229-5.953l-54.32-87.051c-3.341-9.675-10.04-14.509-19.715-14.509h-73.288v-14.508
		c0-45.018-14.136-81.853-42.788-111.242C460.577,14.509,424.488,0,380.59,0c-44.271,0-80.638,14.596-109.377,43.899
		c-28.557,29.112-43.16,66.225-43.16,111.242v14.508h-73.289c-8.183,0-14.136,3.714-17.485,10.786l-1.484,1.492l-55.438,89.281
		c-1.857,4.096-2.977,7.072-2.977,8.929c-2.23,5.214-3.349,10.794-3.349,16.747v418.531c0,12.652,4.373,23.16,13.024,31.629
		c8.841,8.65,19.715,13.016,31.993,13.016h521.965c25.295,0,45.018-19.342,45.018-44.645V296.885
		C686.03,289.813,684.538,283.114,681.562,277.162z M532.009,210.945h61.01l25.303,40.922h-86.312V210.945z M269.347,155.141
		c0-33.858,10.326-61.113,30.882-82.226c20.739-21.294,47.621-31.993,80.36-31.993c32.366,0,59.153,10.786,79.614,31.993
		c20.461,21.208,30.882,48.367,30.882,82.226v14.508H269.347V155.141z M269.347,210.945h221.739v40.922H269.347V210.945z
		 M166.296,210.945h61.756v40.922h-86.678L166.296,210.945z M644.735,715.416c0,2.611-1.119,3.723-3.723,3.723H119.048
		c-2.603,0-3.722-1.111-3.722-3.723V296.885c0-2.604,1.119-3.723,3.722-3.723h521.965c2.604,0,3.723,1.119,3.723,3.723V715.416z"/>
</g>
<g>
</g>
<g>
</g>
<g>
</g>
<g>
</g>
<g>
</g>
<g>
</g>
<g>
</g>
<g>
</g>
<g>
</g>
<g>
</g>
<g>
</g>
<g>
</g>
<g>
</g>
<g>
</g>
<g>
</g>
</svg>
