<svg width="1920" height="1920" viewBox="0 0 1920 1920" fill="none" xmlns="http://www.w3.org/2000/svg">
<g clip-path="url(#clip0_375_2)">
<path d="M376.627 41.1735H1499.26V235.498H376.627V41.1735Z" stroke="#231F20" stroke-width="100" stroke-miterlimit="10" stroke-linecap="round" stroke-linejoin="round"/>
<path d="M640.28 1272.22L614.145 1621.42" stroke="#231F20" stroke-width="100" stroke-miterlimit="10" stroke-linecap="round" stroke-linejoin="round"/>
<path d="M461.931 489.354L336.092 1565.88" stroke="#231F20" stroke-width="100" stroke-miterlimit="10" stroke-linecap="round" stroke-linejoin="round"/>
<path d="M1559.51 1567.94C1552.74 1567.21 1546.2 1566.49 1539.79 1565.88L1544.27 1603.76C1544.27 1603.76 1487.4 1648.77 1392.53 1654.21C1297.79 1659.54 1262.7 1639.45 1262.7 1639.45L1261.73 1621.54C1239.95 1606.18 1178.49 1568.18 1098.39 1563.46V1676.48C1098.39 1692.81 1026.63 1706 937.941 1706C849.248 1706 777.496 1692.81 777.496 1676.48V1563.22C697.395 1568.06 635.927 1606.05 614.147 1621.3L613.179 1639.21C613.179 1639.21 578.089 1659.29 483.347 1653.97C388.605 1648.65 331.614 1603.51 331.614 1603.51L336.091 1565.64C329.678 1566.25 323.144 1566.97 316.368 1567.7C29.6006 1600.13 38.9175 1477.92 38.9175 1477.92L376.626 235.256H1499.26L1836.96 1477.92C1836.96 1478.16 1846.4 1600.37 1559.51 1567.94Z" stroke="#231F20" stroke-width="100" stroke-miterlimit="10" stroke-linecap="round" stroke-linejoin="round"/>
<path d="M1261.74 1621.42L1235.6 1272.22" stroke="#231F20" stroke-width="100" stroke-miterlimit="10" stroke-linecap="round" stroke-linejoin="round"/>
<path d="M1539.79 1565.88L1412.86 479.916" stroke="#231F20" stroke-width="100" stroke-miterlimit="10" stroke-linecap="round" stroke-linejoin="round"/>
<path d="M777.494 1563.22V479.916" stroke="#231F20" stroke-width="100" stroke-miterlimit="10" stroke-linecap="round" stroke-linejoin="round"/>
<path d="M1098.38 1563.22V479.916" stroke="#231F20" stroke-width="100" stroke-miterlimit="10" stroke-linecap="round" stroke-linejoin="round"/>
</g>
<defs>
<clipPath id="clip0_375_2">
<rect width="1920" height="1920" fill="white"/>
</clipPath>
</defs>
</svg>
