<?xml version="1.0" encoding="iso-8859-1"?>
<!-- Generator: Adobe Illustrator 16.0.0, SVG Export Plug-In . SVG Version: 6.00 Build 0)  -->
<!DOCTYPE svg PUBLIC "-//W3C//DTD SVG 1.1//EN" "http://www.w3.org/Graphics/SVG/1.1/DTD/svg11.dtd">
<svg version="1.1" id="Capa_1" xmlns="http://www.w3.org/2000/svg" xmlns:xlink="http://www.w3.org/1999/xlink" x="0px" y="0px"
	 width="611.999px" height="611.999px" viewBox="0 0 611.999 611.999" style="enable-background:new 0 0 611.999 611.999;"
	 xml:space="preserve">
<g>
	<path d="M587.901,473.452L307.907,213.586c12.223-29.829,15.252-59.964,9.7-90.559c-5.598-30.901-19.408-57.51-41.33-79.439
		c-21.93-21.931-48.891-35.579-80.513-41.023c-31.278-5.368-62.302-1.994-92.375,11.502c-6.595,2.99-10.421,7.975-11.862,14.799
		c-1.434,6.824,1.081,12.499,6.111,17.56l86.625,87.031l-50.677,50.685L46.6,97.11c-5.046-5.061-10.39-7.438-17.613-5.751
		c-6.802,1.61-11.763,5.291-14.738,11.886C0.691,133.303-3.027,164.358,2.394,195.95c5.36,31.285,19.407,58.276,41.33,80.207
		c21.922,21.854,48.492,36.115,79.432,41.636c30.887,5.598,61.106,1.841,90.582-10.734l130.109,140.476
		c85.007,91.862,128.676,138.406,129.757,139.863c14.738,15.413,32.336,24.077,52.479,24.461c20.48,0.307,38.447-6.824,52.832-21.24
		l11.862-11.886c14.385-14.339,21.569-32.665,21.209-53.139C611.625,505.427,603.551,487.944,587.901,473.452z M562.022,549.978
		l-11.862,11.885c-6.479,6.518-13.664,10.429-23.364,10.045c-9.362-0.307-17.521-4.063-23.717-10.735l-268.5-291.534
		c-6.042-6.518-15.911-9.124-24.438-4.677c-23.464,12.422-47.825,17.482-73.321,14.415c-25.189-3.066-46.583-13.802-64.342-31.285
		c-26.094-25.688-37.021-61.803-30.188-99.223l77.277,77.293c7.185,7.208,20.841,7.208,28.034,0l78.711-78.75
		c7.752-7.744,7.752-20.243,0-27.987l-77.277-77.293c37.381-6.824,73.543,4.063,99.208,30.212
		c17.107,17.405,27.497,38.492,30.91,63.566c3.42,25.228-0.261,49.918-12.943,73.382c-4.218,7.821-3.236,15.413,3.596,23.311
		l291.496,270.295c7.085,6.594,10.796,14.415,11.142,23.387C572.818,535.945,568.501,543.537,562.022,549.978z"/>
</g>
<g>
</g>
<g>
</g>
<g>
</g>
<g>
</g>
<g>
</g>
<g>
</g>
<g>
</g>
<g>
</g>
<g>
</g>
<g>
</g>
<g>
</g>
<g>
</g>
<g>
</g>
<g>
</g>
<g>
</g>
</svg>
