<svg width="19" height="19" viewBox="0 0 19 19" fill="none" xmlns="http://www.w3.org/2000/svg">
<g clip-path="url(#clip0_114_316)">
<path d="M0.927833 15.1359C0.333927 15.7296 0.000179352 16.5349 0 17.3747L0 19H1.62529C2.46508 18.9998 3.2704 18.6661 3.86413 18.0722L14.4273 7.50895L11.491 4.57266L0.927833 15.1359Z" fill="black"/>
<path d="M18.323 0.676884C18.1302 0.483904 17.9013 0.330811 17.6493 0.22636C17.3973 0.121908 17.1273 0.0681458 16.8545 0.0681458C16.5817 0.0681458 16.3116 0.121908 16.0596 0.22636C15.8076 0.330811 15.5787 0.483904 15.3859 0.676884L12.6104 3.45326L15.5466 6.38955L18.323 3.61397C18.516 3.42119 18.6691 3.19226 18.7735 2.94028C18.878 2.6883 18.9318 2.4182 18.9318 2.14543C18.9318 1.87265 18.878 1.60255 18.7735 1.35057C18.6691 1.09859 18.516 0.869664 18.323 0.676884Z" fill="black"/>
</g>
<defs>
<clipPath id="clip0_114_316">
<rect width="19" height="19" fill="white"/>
</clipPath>
</defs>
</svg>
