<svg width="55" height="49" viewBox="0 0 55 49" fill="none" xmlns="http://www.w3.org/2000/svg">
<path d="M55 24.2998C55 37.7202 42.6878 48.5995 27.5 48.5995C12.3122 48.5995 0 37.7202 0 24.2998C0 10.8794 12.3122 0 27.5 0C42.6878 0 55 10.8794 55 24.2998Z" fill="#FEFEFE"/>
<mask id="path-2-inside-1_114_129" fill="white">
<path d="M44.5242 17.5884C43.8258 16.8941 42.8654 16.4313 41.8178 16.4313H28.3734C27.9369 16.4313 27.5004 16.7398 27.5004 17.2027C27.5004 17.6655 27.9369 17.9741 28.3734 17.9741H41.8178C42.3416 17.9741 42.8654 18.2055 43.2147 18.5141C43.5639 18.8998 43.7385 19.3627 43.5639 19.8255L42.7781 23.6826H33.175C32.7385 23.6826 32.302 23.9912 32.302 24.4541C32.302 24.9169 32.7385 25.2255 33.175 25.2255H42.5162L41.7305 28.9283C41.6432 29.4683 41.0321 29.854 40.421 29.854H23.6591C23.048 29.854 22.5242 29.4683 22.3496 28.9283L18.9448 12.1885C18.8575 11.8027 18.5083 11.5713 18.0718 11.5713H11.3496C10.9131 11.5713 10.4766 11.8799 10.4766 12.3427C10.4766 12.8056 10.9131 13.1142 11.3496 13.1142H17.3734L20.6908 29.314C20.8655 30.394 21.7385 31.1654 22.8734 31.474C22.4369 32.014 22.0877 32.7083 22.0877 33.4797C22.0877 35.4082 23.8337 36.9511 26.0162 36.9511C28.1988 36.9511 29.9448 35.4082 29.9448 33.4797C29.9448 32.7854 29.6829 32.0911 29.2464 31.5511H34.5718C34.1353 32.0911 33.8734 32.7854 33.8734 33.4797C33.8734 35.4082 35.6194 36.9511 37.802 36.9511C39.9845 36.9511 41.7305 35.4082 41.7305 33.4797C41.7305 32.7083 41.4686 32.014 41.0321 31.474C42.167 31.2426 43.1273 30.394 43.3893 29.314L45.3099 20.2112C45.4845 19.2855 45.2226 18.3598 44.5242 17.5884ZM28.1988 33.4025C28.1988 34.4825 27.2385 35.3311 26.0162 35.3311C24.794 35.3311 23.8337 34.4825 23.8337 33.4025C23.8337 32.3225 24.794 31.474 26.0162 31.474C27.2385 31.474 28.1988 32.3225 28.1988 33.4025ZM37.8893 35.3311C36.667 35.3311 35.7067 34.4825 35.7067 33.4025C35.7067 32.3225 36.667 31.474 37.8893 31.474C39.1115 31.474 40.0718 32.3225 40.0718 33.4025C40.0718 34.4825 39.1115 35.3311 37.8893 35.3311Z"/>
</mask>
<path d="M44.5242 17.5884C43.8258 16.8941 42.8654 16.4313 41.8178 16.4313H28.3734C27.9369 16.4313 27.5004 16.7398 27.5004 17.2027C27.5004 17.6655 27.9369 17.9741 28.3734 17.9741H41.8178C42.3416 17.9741 42.8654 18.2055 43.2147 18.5141C43.5639 18.8998 43.7385 19.3627 43.5639 19.8255L42.7781 23.6826H33.175C32.7385 23.6826 32.302 23.9912 32.302 24.4541C32.302 24.9169 32.7385 25.2255 33.175 25.2255H42.5162L41.7305 28.9283C41.6432 29.4683 41.0321 29.854 40.421 29.854H23.6591C23.048 29.854 22.5242 29.4683 22.3496 28.9283L18.9448 12.1885C18.8575 11.8027 18.5083 11.5713 18.0718 11.5713H11.3496C10.9131 11.5713 10.4766 11.8799 10.4766 12.3427C10.4766 12.8056 10.9131 13.1142 11.3496 13.1142H17.3734L20.6908 29.314C20.8655 30.394 21.7385 31.1654 22.8734 31.474C22.4369 32.014 22.0877 32.7083 22.0877 33.4797C22.0877 35.4082 23.8337 36.9511 26.0162 36.9511C28.1988 36.9511 29.9448 35.4082 29.9448 33.4797C29.9448 32.7854 29.6829 32.0911 29.2464 31.5511H34.5718C34.1353 32.0911 33.8734 32.7854 33.8734 33.4797C33.8734 35.4082 35.6194 36.9511 37.802 36.9511C39.9845 36.9511 41.7305 35.4082 41.7305 33.4797C41.7305 32.7083 41.4686 32.014 41.0321 31.474C42.167 31.2426 43.1273 30.394 43.3893 29.314L45.3099 20.2112C45.4845 19.2855 45.2226 18.3598 44.5242 17.5884ZM28.1988 33.4025C28.1988 34.4825 27.2385 35.3311 26.0162 35.3311C24.794 35.3311 23.8337 34.4825 23.8337 33.4025C23.8337 32.3225 24.794 31.474 26.0162 31.474C27.2385 31.474 28.1988 32.3225 28.1988 33.4025ZM37.8893 35.3311C36.667 35.3311 35.7067 34.4825 35.7067 33.4025C35.7067 32.3225 36.667 31.474 37.8893 31.474C39.1115 31.474 40.0718 32.3225 40.0718 33.4025C40.0718 34.4825 39.1115 35.3311 37.8893 35.3311Z" fill="#FEFEFE"/>
<path d="M44.5242 17.5884L46.7481 15.5749L46.6952 15.5164L46.6392 15.4608L44.5242 17.5884ZM43.2147 18.5141L45.4386 16.5006L45.3264 16.3767L45.2011 16.266L43.2147 18.5141ZM43.5639 19.8255L40.7569 18.7667L40.6722 18.9914L40.6242 19.2267L43.5639 19.8255ZM42.7781 23.6826V26.6826H45.2286L45.7178 24.2814L42.7781 23.6826ZM42.5162 25.2255L45.4509 25.8482L46.2196 22.2255H42.5162V25.2255ZM41.7305 28.9283L38.7959 28.3056L38.7807 28.3772L38.769 28.4495L41.7305 28.9283ZM22.3496 28.9283L19.4098 29.5262L19.4433 29.6911L19.4951 29.8513L22.3496 28.9283ZM18.9448 12.1885L21.8846 11.5905L21.8781 11.5583L21.8708 11.5262L18.9448 12.1885ZM17.3734 13.1142L20.3124 12.5123L19.8213 10.1142H17.3734V13.1142ZM20.6908 29.314L23.6524 28.8352L23.6424 28.7734L23.6299 28.7121L20.6908 29.314ZM22.8734 31.474L25.2065 33.3599L28.0962 29.7851L23.6605 28.5791L22.8734 31.474ZM29.2464 31.5511V28.5511H22.9638L26.9133 33.4371L29.2464 31.5511ZM34.5718 31.5511L36.9049 33.4371L40.8545 28.5511H34.5718V31.5511ZM41.0321 31.474L40.4327 28.5345L35.5957 29.5208L38.699 33.3599L41.0321 31.474ZM43.3893 29.314L46.3048 30.021L46.3153 29.9773L46.3246 29.9334L43.3893 29.314ZM45.3099 20.2112L48.2453 20.8306L48.2519 20.799L48.2579 20.7673L45.3099 20.2112ZM46.6392 15.4608C45.4571 14.2857 43.7621 13.4313 41.8178 13.4313V19.4313C41.9688 19.4313 42.1944 19.5025 42.4092 19.716L46.6392 15.4608ZM41.8178 13.4313H28.3734V19.4313H41.8178V13.4313ZM28.3734 13.4313C26.8468 13.4313 24.5004 14.568 24.5004 17.2027H30.5004C30.5004 17.9925 30.1062 18.6079 29.682 18.9579C29.2918 19.2796 28.83 19.4313 28.3734 19.4313V13.4313ZM24.5004 17.2027C24.5004 19.8374 26.8468 20.9741 28.3734 20.9741V14.9741C28.83 14.9741 29.2918 15.1257 29.6819 15.4475C30.1062 15.7974 30.5004 16.4129 30.5004 17.2027H24.5004ZM28.3734 20.9741H41.8178V14.9741H28.3734V20.9741ZM41.8178 20.9741C41.6456 20.9741 41.5283 20.9382 41.4636 20.9122C41.4002 20.8868 41.3218 20.8449 41.2282 20.7622L45.2011 16.266C44.3697 15.5313 43.1569 14.9741 41.8178 14.9741V20.9741ZM40.9907 20.5276C40.9441 20.4761 40.8009 20.3034 40.7085 19.9903C40.6047 19.639 40.5946 19.197 40.7569 18.7667L46.3708 20.8844C47.0934 18.9688 46.2046 17.3467 45.4386 16.5006L40.9907 20.5276ZM40.6242 19.2267L39.8385 23.0838L45.7178 24.2814L46.5035 20.4243L40.6242 19.2267ZM42.7781 20.6826H33.175V26.6826H42.7781V20.6826ZM33.175 20.6826C31.6484 20.6826 29.302 21.8194 29.302 24.4541H35.302C35.302 25.2438 34.9078 25.8593 34.4835 26.2092C34.0933 26.531 33.6316 26.6826 33.175 26.6826V20.6826ZM29.302 24.4541C29.302 27.0887 31.6484 28.2255 33.175 28.2255V22.2255C33.6316 22.2255 34.0933 22.3771 34.4835 22.6989C34.9078 23.0488 35.302 23.6643 35.302 24.4541H29.302ZM33.175 28.2255H42.5162V22.2255H33.175V28.2255ZM39.5816 24.6028L38.7959 28.3056L44.6652 29.551L45.4509 25.8482L39.5816 24.6028ZM38.769 28.4495C38.8885 27.7103 39.3257 27.2901 39.5805 27.1161C39.8402 26.9388 40.1245 26.854 40.421 26.854V32.854C41.3286 32.854 42.224 32.5764 42.9639 32.0712C43.6988 31.5694 44.4853 30.6863 44.6921 29.4071L38.769 28.4495ZM40.421 26.854H23.6591V32.854H40.421V26.854ZM23.6591 26.854C24.309 26.854 24.9661 27.2693 25.2041 28.0053L19.4951 29.8513C20.0823 31.6673 21.787 32.854 23.6591 32.854V26.854ZM25.2894 28.3304L21.8846 11.5905L16.005 12.7864L19.4098 29.5262L25.2894 28.3304ZM21.8708 11.5262C21.4013 9.45203 19.5516 8.57132 18.0718 8.57132V14.5713C17.7689 14.5713 17.3474 14.4905 16.9283 14.1995C16.4854 13.892 16.1461 13.413 16.0188 12.8507L21.8708 11.5262ZM18.0718 8.57132H11.3496V14.5713H18.0718V8.57132ZM11.3496 8.57132C9.82304 8.57132 7.47656 9.70805 7.47656 12.3427H13.4766C13.4766 13.1325 13.0824 13.748 12.6581 14.0979C12.268 14.4197 11.8062 14.5713 11.3496 14.5713V8.57132ZM7.47656 12.3427C7.47656 14.9774 9.82304 16.1142 11.3496 16.1142V10.1142C11.8062 10.1142 12.268 10.2658 12.6581 10.5876C13.0824 10.9375 13.4766 11.553 13.4766 12.3427H7.47656ZM11.3496 16.1142H17.3734V10.1142H11.3496V16.1142ZM14.4344 13.716L17.7518 29.9159L23.6299 28.7121L20.3124 12.5123L14.4344 13.716ZM17.7293 29.7928C18.1443 32.3597 20.1708 33.8481 22.0863 34.3689L23.6605 28.5791C23.5047 28.5367 23.4681 28.4889 23.4989 28.5184C23.5167 28.5356 23.5503 28.573 23.5834 28.6342C23.6175 28.6971 23.6414 28.7673 23.6524 28.8352L17.7293 29.7928ZM20.5403 29.588C19.8396 30.4549 19.0877 31.796 19.0877 33.4797H25.0877C25.0877 33.5524 25.0706 33.5808 25.0824 33.5526C25.0885 33.5381 25.1007 33.5128 25.122 33.478C25.1434 33.4433 25.1714 33.4033 25.2065 33.3599L20.5403 29.588ZM19.0877 33.4797C19.0877 37.4031 22.5364 39.9511 26.0162 39.9511V33.9511C25.6297 33.9511 25.3611 33.8152 25.22 33.6905C25.0864 33.5725 25.0877 33.4964 25.0877 33.4797H19.0877ZM26.0162 39.9511C29.4961 39.9511 32.9448 37.4031 32.9448 33.4797H26.9448C26.9448 33.4964 26.946 33.5725 26.8125 33.6905C26.6714 33.8152 26.4028 33.9511 26.0162 33.9511V39.9511ZM32.9448 33.4797C32.9448 32.0527 32.4175 30.7019 31.5795 29.6652L26.9133 33.4371C26.9174 33.4421 26.9229 33.4499 26.9287 33.4601C26.9345 33.4702 26.939 33.4803 26.9422 33.489C26.9454 33.4977 26.9463 33.5025 26.9462 33.5023C26.9462 33.502 26.9448 33.4945 26.9448 33.4797H32.9448ZM29.2464 34.5511H34.5718V28.5511H29.2464V34.5511ZM32.2387 29.6652C31.4007 30.7019 30.8734 32.0527 30.8734 33.4797H36.8734C36.8734 33.4945 36.872 33.502 36.872 33.5023C36.8719 33.5025 36.8728 33.4977 36.876 33.489C36.8792 33.4803 36.8837 33.4702 36.8895 33.4601C36.8953 33.4499 36.9008 33.4421 36.9049 33.4371L32.2387 29.6652ZM30.8734 33.4797C30.8734 37.4031 34.3221 39.9511 37.802 39.9511V33.9511C37.4154 33.9511 37.1468 33.8152 37.0057 33.6905C36.8722 33.5725 36.8734 33.4964 36.8734 33.4797H30.8734ZM37.802 39.9511C41.2818 39.9511 44.7305 37.4031 44.7305 33.4797H38.7305C38.7305 33.4964 38.7318 33.5725 38.5982 33.6905C38.4571 33.8152 38.1885 33.9511 37.802 33.9511V39.9511ZM44.7305 33.4797C44.7305 32.0141 44.2284 30.6559 43.3652 29.588L38.699 33.3599C38.7062 33.3688 38.7131 33.3802 38.7185 33.3954C38.7235 33.4095 38.7305 33.4359 38.7305 33.4797H44.7305ZM41.6315 34.4135C43.7613 33.9792 45.7356 32.3679 46.3048 30.021L40.4738 28.607C40.4863 28.5552 40.5039 28.5205 40.5149 28.5027C40.5253 28.4856 40.53 28.4833 40.5227 28.4899C40.5154 28.4966 40.5019 28.5068 40.483 28.5164C40.4643 28.5259 40.4466 28.5316 40.4327 28.5345L41.6315 34.4135ZM46.3246 29.9334L48.2453 20.8306L42.3745 19.5919L40.4539 28.6947L46.3246 29.9334ZM48.2579 20.7673C48.6167 18.8652 48.039 17.0008 46.7481 15.5749L42.3002 19.6019C42.3368 19.6423 42.3549 19.6704 42.3624 19.6837C42.3699 19.6967 42.3695 19.6991 42.3672 19.6914C42.3649 19.6835 42.3629 19.6729 42.3624 19.6622C42.3619 19.6516 42.3631 19.6485 42.3619 19.6552L48.2579 20.7673ZM25.1988 33.4025C25.1988 33.0091 25.385 32.6955 25.5794 32.5237C25.7635 32.361 25.9349 32.3311 26.0162 32.3311V38.3311C28.5357 38.3311 31.1988 36.4774 31.1988 33.4025H25.1988ZM26.0162 32.3311C26.0976 32.3311 26.2689 32.361 26.4531 32.5237C26.6475 32.6955 26.8337 33.0091 26.8337 33.4025H20.8337C20.8337 36.4774 23.4968 38.3311 26.0162 38.3311V32.3311ZM26.8337 33.4025C26.8337 33.796 26.6475 34.1096 26.4531 34.2814C26.2689 34.4441 26.0976 34.474 26.0162 34.474V28.474C23.4968 28.474 20.8337 30.3276 20.8337 33.4025H26.8337ZM26.0162 34.474C25.9349 34.474 25.7635 34.4441 25.5794 34.2814C25.385 34.1096 25.1988 33.796 25.1988 33.4025H31.1988C31.1988 30.3276 28.5357 28.474 26.0162 28.474V34.474ZM37.8893 32.3311C37.9706 32.3311 38.142 32.361 38.3261 32.5237C38.5205 32.6955 38.7067 33.0091 38.7067 33.4025H32.7067C32.7067 36.4774 35.3698 38.3311 37.8893 38.3311V32.3311ZM38.7067 33.4025C38.7067 33.796 38.5205 34.1096 38.3261 34.2814C38.142 34.4441 37.9706 34.474 37.8893 34.474V28.474C35.3698 28.474 32.7067 30.3276 32.7067 33.4025H38.7067ZM37.8893 34.474C37.8079 34.474 37.6366 34.4441 37.4524 34.2814C37.258 34.1096 37.0718 33.796 37.0718 33.4025H43.0718C43.0718 30.3276 40.4088 28.474 37.8893 28.474V34.474ZM37.0718 33.4025C37.0718 33.0091 37.258 32.6955 37.4524 32.5237C37.6366 32.361 37.8079 32.3311 37.8893 32.3311V38.3311C40.4088 38.3311 43.0718 36.4774 43.0718 33.4025H37.0718Z" fill="#191616" mask="url(#path-2-inside-1_114_129)"/>
</svg>
