<svg width="63" height="63" viewBox="0 0 63 63" fill="none" xmlns="http://www.w3.org/2000/svg">
<path fill-rule="evenodd" clip-rule="evenodd" d="M31.5 63C48.897 63 63 48.897 63 31.5C63 14.103 48.897 0 31.5 0C14.103 0 0 14.103 0 31.5C0 48.897 14.103 63 31.5 63ZM31.5 60C47.2401 60 60 47.2401 60 31.5C60 15.7599 47.2401 3 31.5 3C15.7599 3 3 15.7599 3 31.5C3 47.2401 15.7599 60 31.5 60Z" fill="#D9D9D9"/>
<path d="M42 11H22V14H42V11Z" fill="#987FFD"/>
<path d="M13 44L21.5 15H42.5L51 46L44.5 47L39.5 23.5L38.5 24L43.5 48H34.5L33 24H32L33.5 48H21L25.5 22.5L24.5 22L20 47L13 44Z" fill="#987FFD"/>
</svg>
