<svg width="16" height="16" viewBox="0 0 16 16" fill="none" xmlns="http://www.w3.org/2000/svg">
<path d="M4.64608 1.64598C4.59952 1.69242 4.56258 1.7476 4.53737 1.80834C4.51216 1.86909 4.49919 1.93421 4.49919 1.99998C4.49919 2.06575 4.51216 2.13087 4.53737 2.19161C4.56258 2.25236 4.59952 2.30753 4.64608 2.35398L10.2931 7.99998L4.64608 13.646C4.5522 13.7399 4.49945 13.8672 4.49945 14C4.49945 14.1328 4.5522 14.2601 4.64608 14.354C4.73997 14.4479 4.86731 14.5006 5.00008 14.5006C5.13286 14.5006 5.2602 14.4479 5.35408 14.354L11.3541 8.35398C11.4006 8.30753 11.4376 8.25236 11.4628 8.19161C11.488 8.13087 11.501 8.06575 11.501 7.99998C11.501 7.93421 11.488 7.86909 11.4628 7.80834C11.4376 7.7476 11.4006 7.69242 11.3541 7.64598L5.35408 1.64598C5.30764 1.59942 5.25246 1.56247 5.19172 1.53727C5.13097 1.51206 5.06585 1.49908 5.00008 1.49908C4.93432 1.49908 4.86919 1.51206 4.80845 1.53727C4.7477 1.56247 4.69253 1.59942 4.64608 1.64598V1.64598Z" fill="#191616"/>
</svg>
